<mxfile host="app.diagrams.net" modified="2022-03-24T14:07:49.251Z" agent="5.0 (Windows NT 10.0; Win64; x64) AppleWebKit/537.36 (KHTML, like Gecko) Chrome/99.0.4844.82 Safari/537.36" etag="4OSVaXcm8ldR4MdynxLH" version="17.1.3" type="github">
  <diagram id="0QJKes_1zFEl7Z-Jn1xQ" name="Page-1">
    <mxGraphModel dx="4405" dy="3005" grid="1" gridSize="10" guides="1" tooltips="1" connect="1" arrows="1" fold="1" page="1" pageScale="1" pageWidth="850" pageHeight="1100" background="#114B5F" math="0" shadow="0">
      <root>
        <mxCell id="0" />
        <mxCell id="1" parent="0" />
        <mxCell id="H7FdbQlTRFEWyw0PZuFm-2" value="Id_user&amp;nbsp;" style="ellipse;whiteSpace=wrap;html=1;strokeColor=#10739e;fillColor=#b1ddf0;" parent="1" vertex="1">
          <mxGeometry x="-688" y="270" width="90" height="50" as="geometry" />
        </mxCell>
        <mxCell id="H7FdbQlTRFEWyw0PZuFm-3" value="Eail" style="ellipse;whiteSpace=wrap;html=1;strokeColor=#10739e;fillColor=#b1ddf0;" parent="1" vertex="1">
          <mxGeometry x="-690" y="200" width="95" height="50" as="geometry" />
        </mxCell>
        <mxCell id="H7FdbQlTRFEWyw0PZuFm-4" value="Password" style="ellipse;whiteSpace=wrap;html=1;strokeColor=#10739e;fillColor=#b1ddf0;" parent="1" vertex="1">
          <mxGeometry x="-685" y="120" width="90" height="50" as="geometry" />
        </mxCell>
        <mxCell id="3zyWhdtW4beN3h-_Vz9x-31" style="edgeStyle=orthogonalEdgeStyle;rounded=0;orthogonalLoop=1;jettySize=auto;html=1;exitX=0.5;exitY=1;exitDx=0;exitDy=0;entryX=1;entryY=0.5;entryDx=0;entryDy=0;strokeColor=#FFFFFF;" edge="1" parent="1" source="H7FdbQlTRFEWyw0PZuFm-8" target="LhsjgoRrLcNbdn1msfwj-21">
          <mxGeometry relative="1" as="geometry" />
        </mxCell>
        <mxCell id="3zyWhdtW4beN3h-_Vz9x-37" style="edgeStyle=orthogonalEdgeStyle;rounded=0;orthogonalLoop=1;jettySize=auto;html=1;exitX=0.75;exitY=1;exitDx=0;exitDy=0;entryX=1;entryY=0.5;entryDx=0;entryDy=0;strokeColor=#FFFFFF;" edge="1" parent="1" source="H7FdbQlTRFEWyw0PZuFm-8" target="3zyWhdtW4beN3h-_Vz9x-36">
          <mxGeometry relative="1" as="geometry" />
        </mxCell>
        <mxCell id="H7FdbQlTRFEWyw0PZuFm-8" value="&lt;font style=&quot;font-size: 18px&quot;&gt;PEMESANAN&lt;/font&gt;" style="rounded=1;whiteSpace=wrap;html=1;strokeColor=#36393d;fillColor=#ffcccc;" parent="1" vertex="1">
          <mxGeometry x="580" y="450" width="190" height="60" as="geometry" />
        </mxCell>
        <mxCell id="H7FdbQlTRFEWyw0PZuFm-9" value="Id_pemesanan" style="ellipse;whiteSpace=wrap;html=1;strokeColor=#10739e;fillColor=#b1ddf0;" parent="1" vertex="1">
          <mxGeometry x="395" y="320" width="100" height="80" as="geometry" />
        </mxCell>
        <mxCell id="H7FdbQlTRFEWyw0PZuFm-10" value="Id_user" style="ellipse;whiteSpace=wrap;html=1;strokeColor=#10739e;fillColor=#b1ddf0;" parent="1" vertex="1">
          <mxGeometry x="425" y="200" width="110" height="80" as="geometry" />
        </mxCell>
        <mxCell id="LhsjgoRrLcNbdn1msfwj-2" value="Nama lengkap" style="ellipse;whiteSpace=wrap;html=1;fillColor=#b1ddf0;strokeColor=#10739e;" parent="1" vertex="1">
          <mxGeometry x="-691" y="40" width="90" height="50" as="geometry" />
        </mxCell>
        <mxCell id="LhsjgoRrLcNbdn1msfwj-4" value="No_hp" style="ellipse;whiteSpace=wrap;html=1;strokeColor=#10739e;fillColor=#b1ddf0;" parent="1" vertex="1">
          <mxGeometry x="-690" y="-30" width="90" height="50" as="geometry" />
        </mxCell>
        <mxCell id="LhsjgoRrLcNbdn1msfwj-5" value="Alamat" style="ellipse;whiteSpace=wrap;html=1;strokeColor=#10739e;fillColor=#b1ddf0;" parent="1" vertex="1">
          <mxGeometry x="-691" y="-110" width="90" height="50" as="geometry" />
        </mxCell>
        <mxCell id="3zyWhdtW4beN3h-_Vz9x-53" style="edgeStyle=orthogonalEdgeStyle;rounded=0;orthogonalLoop=1;jettySize=auto;html=1;exitX=0.75;exitY=1;exitDx=0;exitDy=0;entryX=0.5;entryY=0;entryDx=0;entryDy=0;fontSize=14;strokeColor=#FFFFFF;" edge="1" parent="1" source="LhsjgoRrLcNbdn1msfwj-11" target="3zyWhdtW4beN3h-_Vz9x-39">
          <mxGeometry relative="1" as="geometry" />
        </mxCell>
        <mxCell id="3zyWhdtW4beN3h-_Vz9x-58" style="edgeStyle=orthogonalEdgeStyle;rounded=0;orthogonalLoop=1;jettySize=auto;html=1;exitX=0.25;exitY=1;exitDx=0;exitDy=0;fontSize=14;strokeColor=#FFFFFF;" edge="1" parent="1" source="LhsjgoRrLcNbdn1msfwj-11" target="3zyWhdtW4beN3h-_Vz9x-59">
          <mxGeometry relative="1" as="geometry">
            <mxPoint x="-421" y="450" as="targetPoint" />
          </mxGeometry>
        </mxCell>
        <mxCell id="LhsjgoRrLcNbdn1msfwj-11" value="&lt;font style=&quot;font-size: 18px&quot;&gt;USER&lt;/font&gt;" style="rounded=1;whiteSpace=wrap;html=1;strokeColor=#36393d;fillColor=#ffcccc;" parent="1" vertex="1">
          <mxGeometry x="-476" y="120" width="220" height="80" as="geometry" />
        </mxCell>
        <mxCell id="LhsjgoRrLcNbdn1msfwj-12" value="Id_pemesanan" style="ellipse;whiteSpace=wrap;html=1;strokeColor=#10739e;fillColor=#b1ddf0;" parent="1" vertex="1">
          <mxGeometry x="550" y="110" width="110" height="80" as="geometry" />
        </mxCell>
        <mxCell id="LhsjgoRrLcNbdn1msfwj-13" value="Tanggal" style="ellipse;whiteSpace=wrap;html=1;strokeColor=#10739e;fillColor=#b1ddf0;" parent="1" vertex="1">
          <mxGeometry x="710" y="110" width="110" height="80" as="geometry" />
        </mxCell>
        <mxCell id="LhsjgoRrLcNbdn1msfwj-14" value="Status" style="ellipse;whiteSpace=wrap;html=1;strokeColor=#10739e;fillColor=#b1ddf0;" parent="1" vertex="1">
          <mxGeometry x="840" y="200" width="110" height="80" as="geometry" />
        </mxCell>
        <mxCell id="LhsjgoRrLcNbdn1msfwj-15" value="Total harga" style="ellipse;whiteSpace=wrap;html=1;strokeColor=#10739e;fillColor=#b1ddf0;" parent="1" vertex="1">
          <mxGeometry x="870" y="320" width="110" height="80" as="geometry" />
        </mxCell>
        <mxCell id="3zyWhdtW4beN3h-_Vz9x-2" style="edgeStyle=orthogonalEdgeStyle;rounded=0;orthogonalLoop=1;jettySize=auto;html=1;" edge="1" parent="1">
          <mxGeometry relative="1" as="geometry">
            <mxPoint x="900.0322580645161" y="1450" as="targetPoint" />
            <mxPoint x="900" y="1450" as="sourcePoint" />
          </mxGeometry>
        </mxCell>
        <mxCell id="LhsjgoRrLcNbdn1msfwj-20" value="GUDANG" style="rounded=1;whiteSpace=wrap;html=1;strokeColor=#36393d;fillColor=#ffcccc;" parent="1" vertex="1">
          <mxGeometry x="-120" y="840" width="140" height="100" as="geometry" />
        </mxCell>
        <mxCell id="3zyWhdtW4beN3h-_Vz9x-32" style="edgeStyle=orthogonalEdgeStyle;rounded=0;orthogonalLoop=1;jettySize=auto;html=1;exitX=0;exitY=0.5;exitDx=0;exitDy=0;strokeColor=#FFFFFF;entryX=0.75;entryY=0;entryDx=0;entryDy=0;" edge="1" parent="1" source="LhsjgoRrLcNbdn1msfwj-21" target="LhsjgoRrLcNbdn1msfwj-20">
          <mxGeometry relative="1" as="geometry">
            <mxPoint x="-30" y="830" as="targetPoint" />
            <Array as="points">
              <mxPoint x="-15" y="790" />
            </Array>
          </mxGeometry>
        </mxCell>
        <mxCell id="LhsjgoRrLcNbdn1msfwj-21" value="&lt;font style=&quot;font-size: 14px&quot;&gt;Beli&lt;/font&gt;" style="rhombus;whiteSpace=wrap;html=1;rounded=0;sketch=0;strokeColor=#36393d;fillColor=#ffff88;" parent="1" vertex="1">
          <mxGeometry x="380" y="756" width="110" height="70" as="geometry" />
        </mxCell>
        <mxCell id="LhsjgoRrLcNbdn1msfwj-22" value="stok ikan" style="ellipse;whiteSpace=wrap;html=1;strokeColor=#10739e;fillColor=#b1ddf0;" parent="1" vertex="1">
          <mxGeometry x="-170" y="1010" width="110" height="80" as="geometry" />
        </mxCell>
        <mxCell id="LhsjgoRrLcNbdn1msfwj-23" value="" style="endArrow=classic;html=1;rounded=0;entryX=0.5;entryY=0;entryDx=0;entryDy=0;labelBackgroundColor=#114B5F;strokeColor=#028090;fontColor=#E4FDE1;exitX=0.5;exitY=1;exitDx=0;exitDy=0;" parent="1" source="LhsjgoRrLcNbdn1msfwj-20" target="LhsjgoRrLcNbdn1msfwj-22" edge="1">
          <mxGeometry width="50" height="50" relative="1" as="geometry">
            <mxPoint x="859.9999999999995" y="280" as="sourcePoint" />
            <mxPoint x="1085" y="220" as="targetPoint" />
            <Array as="points" />
          </mxGeometry>
        </mxCell>
        <mxCell id="LhsjgoRrLcNbdn1msfwj-24" value="Jenis ikan" style="ellipse;whiteSpace=wrap;html=1;strokeColor=#10739e;fillColor=#b1ddf0;" parent="1" vertex="1">
          <mxGeometry x="-40" y="1010" width="110" height="80" as="geometry" />
        </mxCell>
        <mxCell id="LhsjgoRrLcNbdn1msfwj-25" value="" style="endArrow=classic;html=1;rounded=0;entryX=0.5;entryY=0;entryDx=0;entryDy=0;labelBackgroundColor=#114B5F;strokeColor=#028090;fontColor=#E4FDE1;exitX=0.5;exitY=1;exitDx=0;exitDy=0;" parent="1" source="LhsjgoRrLcNbdn1msfwj-20" target="LhsjgoRrLcNbdn1msfwj-24" edge="1">
          <mxGeometry width="50" height="50" relative="1" as="geometry">
            <mxPoint x="940" y="750" as="sourcePoint" />
            <mxPoint x="834.9999999999995" y="600" as="targetPoint" />
            <Array as="points" />
          </mxGeometry>
        </mxCell>
        <mxCell id="3zyWhdtW4beN3h-_Vz9x-66" style="edgeStyle=orthogonalEdgeStyle;rounded=0;orthogonalLoop=1;jettySize=auto;html=1;exitX=0;exitY=0.5;exitDx=0;exitDy=0;fontSize=14;strokeColor=#FFFFFF;" edge="1" parent="1" source="LhsjgoRrLcNbdn1msfwj-26" target="LhsjgoRrLcNbdn1msfwj-11">
          <mxGeometry relative="1" as="geometry" />
        </mxCell>
        <mxCell id="LhsjgoRrLcNbdn1msfwj-26" value="&lt;font style=&quot;font-size: 14px&quot;&gt;Nelayan&lt;/font&gt;" style="rhombus;whiteSpace=wrap;html=1;rounded=0;sketch=0;strokeColor=#36393d;fillColor=#ffff88;" parent="1" vertex="1">
          <mxGeometry x="40" y="-220" width="150" height="80" as="geometry" />
        </mxCell>
        <mxCell id="3zyWhdtW4beN3h-_Vz9x-65" style="edgeStyle=orthogonalEdgeStyle;rounded=0;orthogonalLoop=1;jettySize=auto;html=1;exitX=0;exitY=0.5;exitDx=0;exitDy=0;entryX=1;entryY=0.5;entryDx=0;entryDy=0;fontSize=14;strokeColor=#FFFFFF;" edge="1" parent="1" source="3zyWhdtW4beN3h-_Vz9x-5" target="LhsjgoRrLcNbdn1msfwj-26">
          <mxGeometry relative="1" as="geometry" />
        </mxCell>
        <mxCell id="3zyWhdtW4beN3h-_Vz9x-68" style="edgeStyle=orthogonalEdgeStyle;rounded=0;orthogonalLoop=1;jettySize=auto;html=1;exitX=1;exitY=0.5;exitDx=0;exitDy=0;entryX=0;entryY=0.5;entryDx=0;entryDy=0;fontSize=14;strokeColor=#FFFFFF;" edge="1" parent="1" source="3zyWhdtW4beN3h-_Vz9x-5" target="3zyWhdtW4beN3h-_Vz9x-67">
          <mxGeometry relative="1" as="geometry" />
        </mxCell>
        <mxCell id="3zyWhdtW4beN3h-_Vz9x-5" value="&lt;font style=&quot;font-size: 18px&quot;&gt;ADMIN&lt;/font&gt;" style="rounded=1;whiteSpace=wrap;html=1;strokeColor=#36393d;fillColor=#ffcccc;" vertex="1" parent="1">
          <mxGeometry x="580" y="-290" width="200" height="90" as="geometry" />
        </mxCell>
        <mxCell id="3zyWhdtW4beN3h-_Vz9x-48" style="edgeStyle=orthogonalEdgeStyle;rounded=0;orthogonalLoop=1;jettySize=auto;html=1;exitX=0.5;exitY=1;exitDx=0;exitDy=0;entryX=1;entryY=0.5;entryDx=0;entryDy=0;fontSize=14;strokeColor=#FFFFFF;" edge="1" parent="1" source="3zyWhdtW4beN3h-_Vz9x-6" target="3zyWhdtW4beN3h-_Vz9x-47">
          <mxGeometry relative="1" as="geometry" />
        </mxCell>
        <mxCell id="3zyWhdtW4beN3h-_Vz9x-6" value="&lt;font style=&quot;font-size: 18px&quot;&gt;NELAYAN&lt;/font&gt;" style="rounded=1;whiteSpace=wrap;html=1;strokeColor=#36393d;fillColor=#ffcccc;" vertex="1" parent="1">
          <mxGeometry x="1480" y="130" width="190" height="80" as="geometry" />
        </mxCell>
        <mxCell id="3zyWhdtW4beN3h-_Vz9x-7" value="Id_admin" style="ellipse;whiteSpace=wrap;html=1;strokeColor=#10739e;fillColor=#b1ddf0;" vertex="1" parent="1">
          <mxGeometry x="550" y="-450" width="90" height="50" as="geometry" />
        </mxCell>
        <mxCell id="3zyWhdtW4beN3h-_Vz9x-8" value="Email" style="ellipse;whiteSpace=wrap;html=1;strokeColor=#10739e;fillColor=#b1ddf0;" vertex="1" parent="1">
          <mxGeometry x="630" y="-500" width="90" height="50" as="geometry" />
        </mxCell>
        <mxCell id="3zyWhdtW4beN3h-_Vz9x-9" value="Password" style="ellipse;whiteSpace=wrap;html=1;strokeColor=#10739e;fillColor=#b1ddf0;" vertex="1" parent="1">
          <mxGeometry x="720" y="-450" width="90" height="50" as="geometry" />
        </mxCell>
        <mxCell id="3zyWhdtW4beN3h-_Vz9x-10" value="" style="endArrow=none;html=1;rounded=0;exitX=1;exitY=1;exitDx=0;exitDy=0;entryX=0;entryY=0.5;entryDx=0;entryDy=0;fillColor=#f9f7ed;strokeColor=#FFFFFF;" edge="1" parent="1" source="LhsjgoRrLcNbdn1msfwj-5" target="LhsjgoRrLcNbdn1msfwj-11">
          <mxGeometry width="50" height="50" relative="1" as="geometry">
            <mxPoint x="280" y="30" as="sourcePoint" />
            <mxPoint x="330" y="-20" as="targetPoint" />
          </mxGeometry>
        </mxCell>
        <mxCell id="3zyWhdtW4beN3h-_Vz9x-12" value="" style="endArrow=none;html=1;rounded=0;exitX=1;exitY=1;exitDx=0;exitDy=0;entryX=0;entryY=0.5;entryDx=0;entryDy=0;fillColor=#f9f7ed;strokeColor=#FFFFFF;" edge="1" parent="1" source="LhsjgoRrLcNbdn1msfwj-4" target="LhsjgoRrLcNbdn1msfwj-11">
          <mxGeometry width="50" height="50" relative="1" as="geometry">
            <mxPoint x="-403.18019484660545" y="-57.32233047033628" as="sourcePoint" />
            <mxPoint x="-200" y="250" as="targetPoint" />
          </mxGeometry>
        </mxCell>
        <mxCell id="3zyWhdtW4beN3h-_Vz9x-13" value="" style="endArrow=none;html=1;rounded=0;exitX=1;exitY=1;exitDx=0;exitDy=0;entryX=0;entryY=0.5;entryDx=0;entryDy=0;fillColor=#f9f7ed;strokeColor=#FFFFFF;" edge="1" parent="1" source="LhsjgoRrLcNbdn1msfwj-2" target="LhsjgoRrLcNbdn1msfwj-11">
          <mxGeometry width="50" height="50" relative="1" as="geometry">
            <mxPoint x="-403.18019484660545" y="12.677669529663717" as="sourcePoint" />
            <mxPoint x="-200" y="250" as="targetPoint" />
          </mxGeometry>
        </mxCell>
        <mxCell id="3zyWhdtW4beN3h-_Vz9x-14" value="" style="endArrow=none;html=1;rounded=0;exitX=1;exitY=1;exitDx=0;exitDy=0;fillColor=#f9f7ed;strokeColor=#FFFFFF;entryX=0;entryY=0.5;entryDx=0;entryDy=0;" edge="1" parent="1" source="H7FdbQlTRFEWyw0PZuFm-4" target="LhsjgoRrLcNbdn1msfwj-11">
          <mxGeometry width="50" height="50" relative="1" as="geometry">
            <mxPoint x="-403.18019484660545" y="92.67766952966372" as="sourcePoint" />
            <mxPoint x="-210" y="240" as="targetPoint" />
          </mxGeometry>
        </mxCell>
        <mxCell id="3zyWhdtW4beN3h-_Vz9x-15" value="" style="endArrow=none;html=1;rounded=0;exitX=1;exitY=1;exitDx=0;exitDy=0;fillColor=#f9f7ed;strokeColor=#FFFFFF;entryX=0;entryY=0.5;entryDx=0;entryDy=0;" edge="1" parent="1" source="H7FdbQlTRFEWyw0PZuFm-3" target="LhsjgoRrLcNbdn1msfwj-11">
          <mxGeometry width="50" height="50" relative="1" as="geometry">
            <mxPoint x="-403.0575765436172" y="172.6092847259547" as="sourcePoint" />
            <mxPoint x="-200" y="250" as="targetPoint" />
          </mxGeometry>
        </mxCell>
        <mxCell id="3zyWhdtW4beN3h-_Vz9x-16" value="" style="endArrow=none;html=1;rounded=0;exitX=1;exitY=0.5;exitDx=0;exitDy=0;fillColor=#f9f7ed;strokeColor=#FFFFFF;entryX=0;entryY=0.5;entryDx=0;entryDy=0;" edge="1" parent="1" source="H7FdbQlTRFEWyw0PZuFm-2" target="LhsjgoRrLcNbdn1msfwj-11">
          <mxGeometry width="50" height="50" relative="1" as="geometry">
            <mxPoint x="-411.47226228451973" y="242.52418173950923" as="sourcePoint" />
            <mxPoint x="-200" y="250" as="targetPoint" />
          </mxGeometry>
        </mxCell>
        <mxCell id="3zyWhdtW4beN3h-_Vz9x-17" value="" style="endArrow=none;html=1;rounded=0;exitX=1;exitY=1;exitDx=0;exitDy=0;entryX=0.5;entryY=0;entryDx=0;entryDy=0;fillColor=#f9f7ed;strokeColor=#FFFFFF;" edge="1" parent="1" source="H7FdbQlTRFEWyw0PZuFm-9" target="H7FdbQlTRFEWyw0PZuFm-8">
          <mxGeometry width="50" height="50" relative="1" as="geometry">
            <mxPoint x="253.40980515339504" y="439.99766952966394" as="sourcePoint" />
            <mxPoint x="496.59000000000003" y="677.3199999999999" as="targetPoint" />
          </mxGeometry>
        </mxCell>
        <mxCell id="3zyWhdtW4beN3h-_Vz9x-18" value="" style="endArrow=none;html=1;rounded=0;exitX=0.5;exitY=1;exitDx=0;exitDy=0;entryX=0.5;entryY=0;entryDx=0;entryDy=0;fillColor=#f9f7ed;strokeColor=#FFFFFF;" edge="1" parent="1" source="H7FdbQlTRFEWyw0PZuFm-10" target="H7FdbQlTRFEWyw0PZuFm-8">
          <mxGeometry width="50" height="50" relative="1" as="geometry">
            <mxPoint x="430.35533905932743" y="448.2842712474617" as="sourcePoint" />
            <mxPoint x="640" y="550" as="targetPoint" />
          </mxGeometry>
        </mxCell>
        <mxCell id="3zyWhdtW4beN3h-_Vz9x-19" value="" style="endArrow=none;html=1;rounded=0;exitX=0.5;exitY=1;exitDx=0;exitDy=0;entryX=0.5;entryY=0;entryDx=0;entryDy=0;fillColor=#f9f7ed;strokeColor=#FFFFFF;" edge="1" parent="1" source="LhsjgoRrLcNbdn1msfwj-12" target="H7FdbQlTRFEWyw0PZuFm-8">
          <mxGeometry width="50" height="50" relative="1" as="geometry">
            <mxPoint x="425" y="330" as="sourcePoint" />
            <mxPoint x="640" y="550" as="targetPoint" />
          </mxGeometry>
        </mxCell>
        <mxCell id="3zyWhdtW4beN3h-_Vz9x-20" value="" style="endArrow=none;html=1;rounded=0;exitX=0.5;exitY=1;exitDx=0;exitDy=0;fillColor=#f9f7ed;strokeColor=#FFFFFF;entryX=0.5;entryY=0;entryDx=0;entryDy=0;" edge="1" parent="1" source="LhsjgoRrLcNbdn1msfwj-13" target="H7FdbQlTRFEWyw0PZuFm-8">
          <mxGeometry width="50" height="50" relative="1" as="geometry">
            <mxPoint x="500" y="250" as="sourcePoint" />
            <mxPoint x="680" y="500" as="targetPoint" />
          </mxGeometry>
        </mxCell>
        <mxCell id="3zyWhdtW4beN3h-_Vz9x-21" value="" style="endArrow=none;html=1;rounded=0;exitX=0.5;exitY=1;exitDx=0;exitDy=0;fillColor=#f9f7ed;strokeColor=#FFFFFF;entryX=0.5;entryY=0;entryDx=0;entryDy=0;" edge="1" parent="1" source="LhsjgoRrLcNbdn1msfwj-14" target="H7FdbQlTRFEWyw0PZuFm-8">
          <mxGeometry width="50" height="50" relative="1" as="geometry">
            <mxPoint x="625" y="270" as="sourcePoint" />
            <mxPoint x="640" y="500" as="targetPoint" />
          </mxGeometry>
        </mxCell>
        <mxCell id="3zyWhdtW4beN3h-_Vz9x-22" value="" style="endArrow=none;html=1;rounded=0;exitX=0;exitY=1;exitDx=0;exitDy=0;fillColor=#f9f7ed;strokeColor=#FFFFFF;entryX=0.5;entryY=0;entryDx=0;entryDy=0;" edge="1" parent="1" source="LhsjgoRrLcNbdn1msfwj-15" target="H7FdbQlTRFEWyw0PZuFm-8">
          <mxGeometry width="50" height="50" relative="1" as="geometry">
            <mxPoint x="725" y="330" as="sourcePoint" />
            <mxPoint x="640" y="550" as="targetPoint" />
          </mxGeometry>
        </mxCell>
        <mxCell id="3zyWhdtW4beN3h-_Vz9x-24" value="" style="endArrow=none;html=1;rounded=0;exitX=0.5;exitY=1;exitDx=0;exitDy=0;entryX=0.5;entryY=0;entryDx=0;entryDy=0;fillColor=#f9f7ed;strokeColor=#FFFFFF;" edge="1" parent="1" source="3zyWhdtW4beN3h-_Vz9x-8" target="3zyWhdtW4beN3h-_Vz9x-5">
          <mxGeometry width="50" height="50" relative="1" as="geometry">
            <mxPoint x="430.355339059327" y="448.28427124746213" as="sourcePoint" />
            <mxPoint x="570" y="550" as="targetPoint" />
            <Array as="points" />
          </mxGeometry>
        </mxCell>
        <mxCell id="3zyWhdtW4beN3h-_Vz9x-25" value="" style="endArrow=none;html=1;rounded=0;exitX=0.5;exitY=1;exitDx=0;exitDy=0;entryX=0.5;entryY=0;entryDx=0;entryDy=0;fillColor=#f9f7ed;strokeColor=#FFFFFF;" edge="1" parent="1" source="3zyWhdtW4beN3h-_Vz9x-7" target="3zyWhdtW4beN3h-_Vz9x-5">
          <mxGeometry width="50" height="50" relative="1" as="geometry">
            <mxPoint x="465" y="-470" as="sourcePoint" />
            <mxPoint x="495" y="-290" as="targetPoint" />
            <Array as="points" />
          </mxGeometry>
        </mxCell>
        <mxCell id="3zyWhdtW4beN3h-_Vz9x-26" value="" style="endArrow=none;html=1;rounded=0;exitX=0.5;exitY=1;exitDx=0;exitDy=0;entryX=0.5;entryY=0;entryDx=0;entryDy=0;fillColor=#f9f7ed;strokeColor=#FFFFFF;" edge="1" parent="1" source="3zyWhdtW4beN3h-_Vz9x-9" target="3zyWhdtW4beN3h-_Vz9x-5">
          <mxGeometry width="50" height="50" relative="1" as="geometry">
            <mxPoint x="385" y="-410" as="sourcePoint" />
            <mxPoint x="495" y="-290" as="targetPoint" />
            <Array as="points" />
          </mxGeometry>
        </mxCell>
        <mxCell id="3zyWhdtW4beN3h-_Vz9x-27" value="Id_nelayan" style="ellipse;whiteSpace=wrap;html=1;strokeColor=#10739e;fillColor=#b1ddf0;" vertex="1" parent="1">
          <mxGeometry x="1760" y="-40" width="110" height="80" as="geometry" />
        </mxCell>
        <mxCell id="3zyWhdtW4beN3h-_Vz9x-28" value="" style="endArrow=none;html=1;rounded=0;exitX=0;exitY=0.5;exitDx=0;exitDy=0;fillColor=#f9f7ed;strokeColor=#FFFFFF;entryX=1;entryY=0.5;entryDx=0;entryDy=0;" edge="1" parent="1" source="3zyWhdtW4beN3h-_Vz9x-29" target="3zyWhdtW4beN3h-_Vz9x-6">
          <mxGeometry width="50" height="50" relative="1" as="geometry">
            <mxPoint x="805" y="410" as="sourcePoint" />
            <mxPoint x="570" y="550" as="targetPoint" />
          </mxGeometry>
        </mxCell>
        <mxCell id="3zyWhdtW4beN3h-_Vz9x-29" value="Jumlah masuk" style="ellipse;whiteSpace=wrap;html=1;strokeColor=#10739e;fillColor=#b1ddf0;" vertex="1" parent="1">
          <mxGeometry x="1760" y="200" width="110" height="80" as="geometry" />
        </mxCell>
        <mxCell id="3zyWhdtW4beN3h-_Vz9x-30" value="" style="endArrow=none;html=1;rounded=0;exitX=0;exitY=1;exitDx=0;exitDy=0;fillColor=#f9f7ed;strokeColor=#FFFFFF;entryX=1;entryY=0.5;entryDx=0;entryDy=0;" edge="1" parent="1" source="3zyWhdtW4beN3h-_Vz9x-27" target="3zyWhdtW4beN3h-_Vz9x-6">
          <mxGeometry width="50" height="50" relative="1" as="geometry">
            <mxPoint x="1545" y="200" as="sourcePoint" />
            <mxPoint x="1480" y="310" as="targetPoint" />
          </mxGeometry>
        </mxCell>
        <mxCell id="3zyWhdtW4beN3h-_Vz9x-38" style="edgeStyle=orthogonalEdgeStyle;rounded=0;orthogonalLoop=1;jettySize=auto;html=1;exitX=0;exitY=0.5;exitDx=0;exitDy=0;entryX=1;entryY=0.25;entryDx=0;entryDy=0;strokeColor=#FFFFFF;" edge="1" parent="1" source="3zyWhdtW4beN3h-_Vz9x-36" target="LhsjgoRrLcNbdn1msfwj-20">
          <mxGeometry relative="1" as="geometry" />
        </mxCell>
        <mxCell id="3zyWhdtW4beN3h-_Vz9x-36" value="&lt;font style=&quot;font-size: 14px&quot;&gt;Kontrak&lt;/font&gt;" style="rhombus;whiteSpace=wrap;html=1;rounded=0;sketch=0;strokeColor=#36393d;fillColor=#ffff88;" vertex="1" parent="1">
          <mxGeometry x="520" y="830" width="110" height="70" as="geometry" />
        </mxCell>
        <mxCell id="3zyWhdtW4beN3h-_Vz9x-54" style="edgeStyle=orthogonalEdgeStyle;rounded=0;orthogonalLoop=1;jettySize=auto;html=1;exitX=0.5;exitY=1;exitDx=0;exitDy=0;entryX=0;entryY=0.25;entryDx=0;entryDy=0;fontSize=14;strokeColor=#FFFFFF;" edge="1" parent="1" source="3zyWhdtW4beN3h-_Vz9x-39" target="LhsjgoRrLcNbdn1msfwj-20">
          <mxGeometry relative="1" as="geometry" />
        </mxCell>
        <mxCell id="3zyWhdtW4beN3h-_Vz9x-39" value="&lt;font style=&quot;font-size: 14px&quot;&gt;Beli&lt;/font&gt;" style="rhombus;whiteSpace=wrap;html=1;rounded=0;sketch=0;strokeColor=#36393d;fillColor=#ffff88;" vertex="1" parent="1">
          <mxGeometry x="-360" y="480" width="100" height="110" as="geometry" />
        </mxCell>
        <mxCell id="3zyWhdtW4beN3h-_Vz9x-40" value="Jenis kelamin" style="ellipse;whiteSpace=wrap;html=1;strokeColor=#10739e;fillColor=#b1ddf0;" vertex="1" parent="1">
          <mxGeometry x="1760" y="310" width="110" height="80" as="geometry" />
        </mxCell>
        <mxCell id="3zyWhdtW4beN3h-_Vz9x-41" value="Nama" style="ellipse;whiteSpace=wrap;html=1;strokeColor=#10739e;fillColor=#b1ddf0;" vertex="1" parent="1">
          <mxGeometry x="1760" y="80" width="110" height="80" as="geometry" />
        </mxCell>
        <mxCell id="3zyWhdtW4beN3h-_Vz9x-42" value="" style="endArrow=none;html=1;rounded=0;exitX=0;exitY=0.5;exitDx=0;exitDy=0;fillColor=#f9f7ed;strokeColor=#FFFFFF;entryX=1;entryY=0.5;entryDx=0;entryDy=0;" edge="1" parent="1" source="3zyWhdtW4beN3h-_Vz9x-40" target="3zyWhdtW4beN3h-_Vz9x-6">
          <mxGeometry width="50" height="50" relative="1" as="geometry">
            <mxPoint x="1445" y="130" as="sourcePoint" />
            <mxPoint x="1480" y="310" as="targetPoint" />
          </mxGeometry>
        </mxCell>
        <mxCell id="3zyWhdtW4beN3h-_Vz9x-43" value="" style="endArrow=none;html=1;rounded=0;exitX=0;exitY=0.5;exitDx=0;exitDy=0;fillColor=#f9f7ed;strokeColor=#FFFFFF;entryX=1;entryY=0.5;entryDx=0;entryDy=0;" edge="1" parent="1" source="3zyWhdtW4beN3h-_Vz9x-41" target="3zyWhdtW4beN3h-_Vz9x-6">
          <mxGeometry width="50" height="50" relative="1" as="geometry">
            <mxPoint x="1305" y="90" as="sourcePoint" />
            <mxPoint x="1470" y="300" as="targetPoint" />
          </mxGeometry>
        </mxCell>
        <mxCell id="3zyWhdtW4beN3h-_Vz9x-49" style="edgeStyle=orthogonalEdgeStyle;rounded=0;orthogonalLoop=1;jettySize=auto;html=1;exitX=0;exitY=0.5;exitDx=0;exitDy=0;fontSize=14;strokeColor=#FFFFFF;" edge="1" parent="1" source="3zyWhdtW4beN3h-_Vz9x-47">
          <mxGeometry relative="1" as="geometry">
            <mxPoint x="20" y="910" as="targetPoint" />
            <Array as="points">
              <mxPoint x="890" y="910" />
            </Array>
          </mxGeometry>
        </mxCell>
        <mxCell id="3zyWhdtW4beN3h-_Vz9x-47" value="&lt;font style=&quot;font-size: 14px&quot;&gt;Pemasukan&lt;/font&gt;" style="rhombus;whiteSpace=wrap;html=1;rounded=0;sketch=0;strokeColor=#36393d;fillColor=#ffff88;" vertex="1" parent="1">
          <mxGeometry x="1165" y="874" width="110" height="70" as="geometry" />
        </mxCell>
        <mxCell id="3zyWhdtW4beN3h-_Vz9x-60" style="edgeStyle=orthogonalEdgeStyle;rounded=0;orthogonalLoop=1;jettySize=auto;html=1;exitX=0.5;exitY=1;exitDx=0;exitDy=0;entryX=0;entryY=0.75;entryDx=0;entryDy=0;fontSize=14;strokeColor=#FFFFFF;" edge="1" parent="1" source="3zyWhdtW4beN3h-_Vz9x-59" target="LhsjgoRrLcNbdn1msfwj-20">
          <mxGeometry relative="1" as="geometry" />
        </mxCell>
        <mxCell id="3zyWhdtW4beN3h-_Vz9x-59" value="&lt;font style=&quot;font-size: 14px&quot;&gt;Cek&lt;/font&gt;" style="rhombus;whiteSpace=wrap;html=1;rounded=0;sketch=0;strokeColor=#36393d;fillColor=#ffff88;" vertex="1" parent="1">
          <mxGeometry x="-470" y="560" width="100" height="110" as="geometry" />
        </mxCell>
        <mxCell id="3zyWhdtW4beN3h-_Vz9x-69" style="edgeStyle=orthogonalEdgeStyle;rounded=0;orthogonalLoop=1;jettySize=auto;html=1;exitX=1;exitY=0.5;exitDx=0;exitDy=0;entryX=0.5;entryY=0;entryDx=0;entryDy=0;fontSize=14;strokeColor=#FFFFFF;" edge="1" parent="1" source="3zyWhdtW4beN3h-_Vz9x-67" target="3zyWhdtW4beN3h-_Vz9x-6">
          <mxGeometry relative="1" as="geometry" />
        </mxCell>
        <mxCell id="3zyWhdtW4beN3h-_Vz9x-67" value="&lt;font style=&quot;font-size: 14px&quot;&gt;Nelayan&lt;/font&gt;" style="rhombus;whiteSpace=wrap;html=1;rounded=0;sketch=0;strokeColor=#36393d;fillColor=#ffff88;" vertex="1" parent="1">
          <mxGeometry x="1150" y="-230" width="150" height="80" as="geometry" />
        </mxCell>
      </root>
    </mxGraphModel>
  </diagram>
</mxfile>
